<svg xmlns="http://www.w3.org/2000/svg" viewBox="0 0 950.78 419.44" role="img"><title>MergeMate logo</title><g class="mm-mark" fill="#d4ff3a"><path class="mm-arch-left" d="M376.39 172V91A59 59 0 0 1 494.39 91V158.52H456.39V91A21 21 0 0 0 414.39 91V172Z"/><path class="mm-arch-right" d="M456.39 91A59 59 0 0 1 574.39 91V172H536.39V91A21 21 0 0 0 494.39 91Z"/><path class="mm-node" d="M494.39 150.52V158.52A10 10 0 0 0 497.32 165.59A31 31 0 1 1 453.47 165.59A10 10 0 0 0 456.39 158.52V150.52Z"/></g><g class="mm-word" fill="#f6f5f1"><path class="mm-letter mm-letter-1" d="M38.9 346.8V291.2V260H57.9V286H61.1Q63.4 276.4 67.2 270.2Q71 264 76.4 260.8Q81.7 257.7 89 257.7Q96.8 257.7 101.9 261.2Q107 264.6 109.8 270.8Q112.7 277 113.5 286H116.1Q118.6 276.2 122.8 269.9Q127 263.6 132.9 260.7Q138.8 257.7 145.9 257.7Q153 257.7 158.4 260.5Q163.7 263.3 167.4 268.8Q171 274.4 172.8 282.7Q174.7 291.1 174.7 302V346.8H150.8V305Q150.8 296 149.4 290Q147.9 284 144.7 281Q141.6 278 136.6 278Q131.2 278 127.2 281.7Q123.2 285.5 120.9 291.9Q118.6 298.4 118.4 306.6V346.8H95.1V305.6Q95.1 296.4 93.5 290.3Q91.8 284.3 88.7 281.2Q85.5 278 80.7 278Q75.1 278 71.2 281.7Q67.2 285.5 65 292.1Q62.9 298.7 62.7 306.8V346.8Z"/><path class="mm-letter mm-letter-2" d="M230.7 349.1Q220 349.1 211.6 346.1Q203.3 343.2 197.5 337.5Q191.7 331.9 188.6 323.7Q185.6 315.4 185.6 305Q185.6 294.7 188.5 286Q191.3 277.4 197 271Q202.6 264.6 210.7 261.2Q218.8 257.7 229 257.7Q239 257.7 246.7 260.9Q254.5 264.1 259.7 270.6Q264.9 277 267.3 286.4Q269.7 295.7 269.1 307.8L200.9 308.4V295.4L255.3 294.9L246.9 301.5Q248.1 292.7 245.7 287.1Q243.4 281.5 239 278.8Q234.7 276.2 229.4 276.2Q223.1 276.2 218.3 279.5Q213.5 282.8 210.9 289.2Q208.2 295.5 208.2 304.5Q208.2 318.5 214.4 325.1Q220.6 331.8 230.7 331.8Q235.3 331.8 238.6 330.5Q241.8 329.3 243.8 327.3Q245.9 325.3 247.1 322.8Q248.4 320.3 249.2 317.9L269.9 322.3Q268.4 328.4 265.5 333.3Q262.6 338.2 257.8 341.8Q253 345.3 246.3 347.2Q239.6 349.1 230.7 349.1Z"/><path class="mm-letter mm-letter-3" d="M281.5 346.8V304.8V260H301.1L301.3 289.6H304.4Q305.8 278.5 309 271.6Q312.2 264.6 318 261.3Q323.8 258 332.4 258Q333.9 258 335.6 258.1Q337.3 258.2 339.7 258.7L338.7 284Q336.2 282.8 333.2 282.3Q330.2 281.8 327.9 281.8Q321.5 281.8 316.8 284.8Q312.2 287.8 309.3 293.3Q306.4 298.9 305.4 306.8V346.8Z"/><path class="mm-letter mm-letter-4" d="M382.6 377.1Q368.4 377.1 359.2 374.8Q350.1 372.6 345.8 368.3Q341.5 364 341.5 357.5Q341.5 349.9 347.5 345.1Q353.5 340.4 365.3 339.4V336.1Q356.4 336.1 351.6 334.2Q346.8 332.3 346.8 327.5Q346.8 322.8 351.5 319.2Q356.2 315.6 367.1 313.4V310.1Q356.8 309.4 351.1 303.5Q345.3 297.5 345.3 288.1Q345.3 279.8 349.9 273.3Q354.5 266.8 363.7 262.9Q372.9 259 386.3 259H430.3V277.2L403 273.4V277.2Q413.6 278.7 418.3 282.5Q423 286.3 423 293.1Q423 299.8 418.5 305Q414.1 310.1 405.9 313Q397.7 315.9 386.3 315.9Q384.1 315.9 381.6 315.7Q379.2 315.6 373.4 314.9Q370.2 317.2 368.5 318.9Q366.8 320.7 366.8 322.2Q366.8 323.3 368 324.1Q369.2 325 371.3 325.3Q373.4 325.6 375.5 325.6H400.3Q403.6 325.6 408.9 326.1Q414.2 326.5 419.5 328.6Q424.8 330.8 428.4 335.5Q432.1 340.2 432.1 348.9Q432.1 358.5 426.7 364.8Q421.3 371.1 410.3 374.1Q399.3 377.1 382.6 377.1ZM385.3 358Q395.4 358 401 357Q406.6 355.9 409 353.5Q411.4 351.1 411.4 347.5Q411.4 344.2 410 342.3Q408.6 340.5 406.4 339.8Q404.1 339 401.9 338.8Q399.7 338.5 398 338.5H377.2Q370.2 339.2 367.2 342.3Q364.1 345.3 364.1 349.3Q364.1 352.9 366.4 354.7Q368.8 356.6 373.5 357.3Q378.2 358 385.3 358ZM385 303.5Q392.9 303.5 396.9 299.6Q400.8 295.7 400.8 289.4Q400.8 282.8 396.8 278.5Q392.7 274.2 385 274.2Q377.3 274.2 373.1 278.4Q368.8 282.7 368.8 289.3Q368.8 293.4 370.7 296.6Q372.6 299.8 376.2 301.7Q379.8 303.5 385 303.5Z"/><path class="mm-letter mm-letter-5" d="M483 349.1Q472.3 349.1 463.9 346.1Q455.6 343.2 449.8 337.5Q444 331.9 440.9 323.7Q437.9 315.4 437.9 305Q437.9 294.7 440.8 286Q443.6 277.4 449.3 271Q454.9 264.6 463 261.2Q471.1 257.7 481.3 257.7Q491.3 257.7 499 260.9Q506.8 264.1 512 270.6Q517.2 277 519.6 286.4Q522 295.7 521.4 307.8L453.2 308.4V295.4L507.6 294.9L499.2 301.5Q500.4 292.7 498 287.1Q495.7 281.5 491.3 278.8Q487 276.2 481.7 276.2Q475.4 276.2 470.6 279.5Q465.8 282.8 463.2 289.2Q460.5 295.5 460.5 304.5Q460.5 318.5 466.7 325.1Q472.9 331.8 483 331.8Q487.6 331.8 490.9 330.5Q494.1 329.3 496.1 327.3Q498.2 325.3 499.4 322.8Q500.7 320.3 501.5 317.9L522.2 322.3Q520.7 328.4 517.8 333.3Q514.9 338.2 510.1 341.8Q505.3 345.3 498.6 347.2Q491.9 349.1 483 349.1Z"/><path class="mm-letter mm-letter-6" d="M533.8 346.8V291.2V260H552.8V286H555.9Q558.2 276.4 562 270.2Q565.8 264 571.2 260.8Q576.6 257.7 583.9 257.7Q591.6 257.7 596.7 261.2Q601.9 264.6 604.7 270.8Q607.5 277 608.3 286H611Q613.4 276.2 617.7 269.9Q621.9 263.6 627.7 260.7Q633.6 257.7 640.7 257.7Q647.8 257.7 653.2 260.5Q658.6 263.3 662.2 268.8Q665.9 274.4 667.7 282.7Q669.5 291.1 669.5 302V346.8H645.7V305Q645.7 296 644.2 290Q642.7 284 639.6 281Q636.4 278 631.5 278Q626 278 622 281.7Q618.1 285.5 615.8 291.9Q613.4 298.4 613.3 306.6V346.8H590V305.6Q590 296.4 588.3 290.3Q586.7 284.3 583.5 281.2Q580.4 278 575.6 278Q570 278 566 281.7Q562 285.5 559.9 292.1Q557.7 298.7 557.6 306.8V346.8Z"/><path class="mm-letter mm-letter-7" d="M705.5 349.1Q698.3 349.1 692.6 346.2Q687 343.3 683.9 337.9Q680.7 332.4 680.7 324.3Q680.7 317.2 683.5 312.4Q686.2 307.6 691.5 304.6Q696.8 301.7 704.5 299.7Q712.3 297.7 722.2 296.2Q727.5 295.4 730.9 294.6Q734.3 293.9 736 292.2Q737.6 290.4 737.6 287.1Q737.6 282.5 734.3 279.2Q731 275.9 723.9 275.9Q719.1 275.9 715 277.5Q711 279.2 708.1 282.5Q705.2 285.8 703.9 290.9L682.9 284.5Q684.9 277.7 688.6 272.7Q692.3 267.8 697.6 264.4Q702.9 261 709.7 259.3Q716.4 257.7 724.4 257.7Q737.1 257.7 745.1 261.7Q753.2 265.8 757.1 274.3Q761.1 282.8 761.1 296.2V311.1Q761.1 316.9 761.3 322.8Q761.6 328.8 762 334.8Q762.4 340.8 762.9 346.8H741.9Q741.2 342.7 740.7 337.3Q740.1 331.9 739.8 326.5H736.8Q734.5 332.7 730.2 337.9Q725.9 343 719.7 346.1Q713.5 349.1 705.5 349.1ZM715.6 331.9Q718.8 331.9 722 330.8Q725.2 329.6 728.3 327.5Q731.3 325.5 733.9 322.3Q736.5 319.2 738.1 315.2L737.8 301.3L741.6 302.2Q738.6 304.3 734.6 305.5Q730.7 306.8 726.5 307.5Q722.2 308.1 718.1 308.9Q714 309.8 710.7 311.1Q707.5 312.4 705.6 314.6Q703.7 316.9 703.7 320.8Q703.7 326 707 328.9Q710.3 331.9 715.6 331.9Z"/><path class="mm-letter mm-letter-8" d="M809.2 348.8Q794.7 348.8 787.8 341.1Q780.9 333.4 780.9 316.5V278.7H768.4L768.7 260H777.5Q782.6 260 785.1 258.5Q787.5 257 788 253.1L790.2 240.7H803.7V260H825.7V279.3H803.7V315.6Q803.7 321.5 806.6 324.1Q809.4 326.8 815.2 326.8Q818.3 326.8 821.2 326.1Q824.1 325.5 826.2 324V346.1Q821.1 347.8 816.8 348.3Q812.5 348.8 809.2 348.8Z"/><path class="mm-letter mm-letter-9" d="M878 349.1Q867.2 349.1 858.9 346.1Q850.5 343.2 844.7 337.5Q839 331.9 835.9 323.7Q832.8 315.4 832.8 305Q832.8 294.7 835.7 286Q838.6 277.4 844.3 271Q849.9 264.6 858 261.2Q866.1 257.7 876.3 257.7Q886.2 257.7 894 260.9Q901.8 264.1 907 270.6Q912.2 277 914.6 286.4Q917 295.7 916.3 307.8L848.2 308.4V295.4L902.6 294.9L894.2 301.5Q895.3 292.7 893 287.1Q890.7 281.5 886.3 278.8Q881.9 276.2 876.7 276.2Q870.4 276.2 865.6 279.5Q860.8 282.8 858.1 289.2Q855.5 295.5 855.5 304.5Q855.5 318.5 861.7 325.1Q867.9 331.8 878 331.8Q882.6 331.8 885.8 330.5Q889.1 329.3 891.1 327.3Q893.2 325.3 894.4 322.8Q895.7 320.3 896.5 317.9L917.2 322.3Q915.7 328.4 912.8 333.3Q909.9 338.2 905.1 341.8Q900.3 345.3 893.6 347.2Q886.9 349.1 878 349.1Z"/></g></svg>
